
        <svg xmlns="http://www.w3.org/2000/svg" xmlns:xlink="http://www.w3.org/1999/xlink" version="1.1" width="3162.2478475740527" 
        height="783.153220010126" viewBox="0 0 3162.2478475740527 783.153220010126">
			
			<g transform="scale(8.112392378702639) translate(10, 10)">
				<defs id="SvgjsDefs1483"></defs><g id="SvgjsG1484" featureKey="4yrtKO-0" transform="matrix(1.4841183662039958,0,0,1.4841183662039958,225.06460717522987,-42.053674062002365)" fill="#ffca6c"><path xmlns="http://www.w3.org/2000/svg" d="M91,35.7c-3.5,0-6.8,0.1-9.5,0.2c-0.7-0.9-1.6-1.5-2.7-1.5c-1.2,0-2.3,0.8-3,2c-0.1,0-0.3,0-0.4,0.1  c-2.6-0.5-5.9-0.8-9.9-0.8c-10,0-12.3,4.6-2.3,4.6c4.6,0,8.7-0.2,11.9-0.4c0.3,0.8,1.3,1.3,2.4,1.5V43c-1.4,0.3-2.5,0.9-2.5,2  c0,0.3,0,0.7,0.1,1H55.9c-1.6-1.3-3.7-2.1-5.9-2.1s-4.3,0.8-5.9,2.1H26.6c0-0.3,0.1-0.6,0.1-1c0-1.1-1.1-1.8-2.5-2v-1.6  c1.2-0.2,2.2-0.8,2.5-1.6c2.2,0.3,4.9,0.5,7.9,0.5c10,0,12.3-4.6,2.3-4.6c-4.2,0-8.1,0.1-11.2,0.3c-0.7-1-1.7-1.6-2.7-1.6  c-1.2,0-2.2,0.7-2.9,1.9c-2.4-0.4-5.3-0.6-8.7-0.6c-10,0-12.3,4.6-2.3,4.6c3.8,0,7.3-0.1,10.3-0.3c0.3,0.8,1.3,1.2,2.4,1.4V43  c-1.4,0.3-2.5,0.9-2.5,2c0,2.9,1.7,5.2,3.8,5.2c0.8,0,1.5-0.3,2.1-0.9h7.3l-10.6,22c-0.5,1-0.1,2.3,1,2.7c1,0.5,2.3,0.1,2.7-1  l11-22.9c0.1-0.3,0.2-0.6,0.2-0.9h4.9c-0.4,0.9-0.7,2-0.8,3.1h-1.1c-2,0-3.7,1.7-3.7,3.7v11.1c0,2,1.7,3.7,3.7,3.7h4.4  c1.4,1.9,3.6,3.2,6.1,3.2s4.8-1.3,6.1-3.2h4.4c2,0,3.7-1.7,3.7-3.7V56.2c0-2-1.7-3.7-3.7-3.7h-1.1c-0.1-1.1-0.4-2.1-0.8-3.1h4.9  c0,0.3,0.1,0.6,0.2,0.9l11,22.9c0.5,1,1.7,1.5,2.7,1c1-0.5,1.5-1.7,1-2.7l-10.6-22h9c0.6,0.5,1.3,0.9,2.1,0.9c2.1,0,3.8-2.3,3.8-5.2  c0-1.1-1.1-1.8-2.5-2v-1.6c1.1-0.2,2.1-0.7,2.4-1.4c1.9,0.2,4,0.3,6.3,0.3C98.8,40.3,101,35.7,91,35.7z M42.2,57.3  c-1.5,0-2.8-0.7-2.8-1.5s1.3-1.5,2.8-1.5s2.8,0.7,2.8,1.5S43.7,57.3,42.2,57.3z M50,68.9c-2.9,0-5.2-2.3-5.2-5.2  c0-2.9,2.3-5.2,5.2-5.2s5.2,2.3,5.2,5.2C55.2,66.5,52.9,68.9,50,68.9z"></path></g><g id="SvgjsG1485" featureKey="Gem1BN-0" transform="matrix(1.884202032263886,0,0,1.884202032263886,-1.3943095218444264,-12.774890174070466)" fill="#ffffff"><path d="M0.78 20 l0 -2.32 l1.44 0 l0 -8.58 l-1.48 0 l0 -2.32 l10.26 0 l0 4.26 l-2.52 0 l0 -1.74 l-2.9 0 l0 2.98 l3.96 0 l0 2.52 l-3.96 0 l0 2.88 l1.64 0 l0 2.32 l-6.44 0 z M14.038 20 l0 -2.32 l1.48 0 l0 -8.58 l-1.44 0 l0 -2.32 l6.24 0 l0 2.32 l-1.44 0 l0 8.38 l3.46 0 l0 -2.04 l2.52 0 l0 4.56 l-10.82 0 z M30.916000000000004 20 l0 -2.32 l1.44 0 l0 -2.42 l-4 -6.16 l-1.1 0 l0 -2.32 l6.04 0 l0 2.32 l-1.2 0 l2.02 3.22 l1.88 -3.22 l-1.12 0 l0 -2.32 l5.76 0 l0 2.32 l-1.1 0 l-3.82 6.16 l0 2.42 l1.44 0 l0 2.32 l-6.24 0 z M53.792 20 l-3.94 -10.9 l-1.02 0 l0 -2.32 l5.84 0 l0 2.32 l-1.34 0 l2.12 6.3 l2.22 -6.3 l-1.38 0 l0 -2.32 l5.42 0 l0 2.32 l-1.32 0 l2.28 6.3 l2.02 -6.3 l-1.32 0 l0 -2.32 l5.72 0 l0 2.32 l-1.12 0 l-3.72 10.9 l-2.8 0 l-2.48 -6.76 l-2.38 6.76 l-2.8 0 z M72.01 20 l0 -2.32 l1.44 0 l0 -8.58 l-1.44 0 l0 -2.32 l6.24 0 l0 2.32 l-1.44 0 l0 8.58 l1.44 0 l0 2.32 l-6.24 0 z M84.388 20 l0 -2.32 l1.44 0 l0 -8.38 l-2.02 0 l0 2.04 l-2.52 0 l0 -4.56 l12.44 0 l0 4.56 l-2.52 0 l0 -2.04 l-2.02 0 l0 8.38 l1.44 0 l0 2.32 l-6.24 0 z M96.766 20 l0 -2.32 l1.44 0 l0 -8.58 l-1.44 0 l0 -2.32 l6.24 0 l0 2.32 l-1.44 0 l0 2.98 l5.4 0 l0 -2.98 l-1.44 0 l0 -2.32 l6.24 0 l0 2.32 l-1.44 0 l0 8.58 l1.44 0 l0 2.32 l-6.24 0 l0 -2.32 l1.44 0 l0 -3.08 l-5.4 0 l0 3.08 l1.44 0 l0 2.32 l-6.24 0 z"></path></g><g id="SvgjsG1486" featureKey="Gem1BN-1" transform="matrix(3.1489208576465626,0,0,3.1489208576465626,-0.9446762948320306,13.650314422963945)" fill="#ffffff"><path d="M0.3 20 l0 -2.32 l1.02 0 l3.92 -10.9 l3.08 0 l4.34 10.9 l1.04 0 l0 2.32 l-5.52 0 l0 -2.32 l1.24 0 l-0.5 -1.32 l-4.24 0 l-0.44 1.32 l1.26 0 l0 2.32 l-5.2 0 z M5.42 14.04 l2.66 0 l-1.42 -4.02 z M16.518 20 l0 -2.32 l1.44 0 l0 -8.58 l-1.44 0 l0 -2.32 l6.86 0 c4.34 0 6.46 2.66 6.46 6.36 c0 3.56 -1.98 6.86 -6.44 6.86 l-6.88 0 z M21.318 17.48 l2 0 c1.98 0 2.98 -1.42 2.98 -4.2 c0 -2.72 -0.96 -3.98 -3.1 -3.98 l-1.88 0 l0 8.18 z M32.696 20 l0 -2.32 l1.02 0 l3.92 -10.9 l3.08 0 l4.34 10.9 l1.04 0 l0 2.32 l-5.52 0 l0 -2.32 l1.24 0 l-0.5 -1.32 l-4.24 0 l-0.44 1.32 l1.26 0 l0 2.32 l-5.2 0 z M37.816 14.04 l2.66 0 l-1.42 -4.02 z M48.914 20 l0 -2.32 l1.44 0 l0 -8.58 l-1.44 0 l0 -2.32 l6.34 0 l2.64 7.68 l2.62 -7.68 l6.22 0 l0 2.32 l-1.44 0 l0 8.58 l1.44 0 l0 2.32 l-6.04 0 l0 -2.32 l1.34 0 l0 -7.28 l-3.32 9.6 l-1.8 0 l-3.3 -9.54 l0 7.22 l1.34 0 l0 2.32 l-6.04 0 z"></path></g>
			</g>
		</svg>
	